<svg xmlns="http://www.w3.org/2000/svg" xmlns:xlink="http://www.w3.org/1999/xlink" width="500" zoomAndPan="magnify" viewBox="0 0 375 374.999991" height="500" preserveAspectRatio="xMidYMid meet" version="1.0"><rect x="-37.5" width="450" fill="#ffffff" y="-37.499999" height="449.999989" fill-opacity="1"/><rect x="-37.5" width="450" fill="#ffffff" y="-37.499999" height="449.999989" fill-opacity="1"/><path fill="#6bc6b5" d="M 154.261719 187.496094 C 163.496094 193.03125 166.457031 203.335938 165.011719 214.199219 L 186.539062 214.199219 C 187 211.308594 187.273438 208.339844 187.273438 205.296875 C 187.273438 178.261719 165.019531 153.089844 141.566406 153.089844 C 103.832031 153.089844 97.660156 193.332031 121.242188 205.296875 C 116.53125 183.042969 139.585938 178.707031 154.261719 187.496094 Z M 220.460938 187.496094 C 211.226562 193.03125 208.269531 203.335938 209.710938 214.199219 L 188.183594 214.199219 C 187.71875 211.308594 187.449219 208.339844 187.449219 205.296875 C 187.449219 178.261719 209.707031 153.089844 233.152344 153.089844 C 270.886719 153.089844 277.058594 193.332031 253.476562 205.296875 C 258.199219 183.042969 235.136719 178.707031 220.460938 187.496094 Z M 239.75 225.976562 C 237.632812 232.0625 231.90625 236.449219 225.105469 236.449219 C 217.261719 236.449219 210.839844 230.632812 209.753906 223.097656 L 198.117188 223.097656 C 196.910156 225.832031 196.175781 228.816406 196.175781 232 C 196.175781 244.292969 206.136719 254.253906 218.429688 254.253906 C 230.722656 254.253906 240.679688 244.292969 240.679688 232 C 240.679688 229.898438 240.296875 227.90625 239.75 225.976562 Z M 164.796875 223.097656 C 163.710938 230.632812 157.28125 236.449219 149.445312 236.449219 C 142.644531 236.449219 136.921875 232.0625 134.800781 225.976562 C 134.25 227.90625 133.867188 229.898438 133.867188 232 C 133.867188 244.292969 143.828125 254.253906 156.121094 254.253906 C 168.414062 254.253906 178.375 244.292969 178.375 232 C 178.375 228.816406 177.640625 225.832031 176.433594 223.097656 Z M 164.796875 223.097656 " fill-opacity="1" fill-rule="nonzero"/><path fill="#44bba4" d="M 165.023438 152.902344 C 165.023438 124.96875 187.273438 107.386719 187.273438 107.386719 C 187.273438 107.386719 209.527344 124.96875 209.527344 152.902344 C 209.527344 180.832031 199.566406 218.648438 187.273438 218.648438 C 174.984375 218.648438 165.023438 180.832031 165.023438 152.902344 Z M 165.023438 152.902344 " fill-opacity="1" fill-rule="nonzero"/><path fill="#44bba4" d="M 169.472656 240.902344 C 169.472656 226.15625 179.90625 214.199219 187.273438 214.199219 C 194.644531 214.199219 205.078125 226.15625 205.078125 240.902344 C 205.078125 255.644531 187.273438 267.605469 187.273438 267.605469 C 187.273438 267.605469 169.472656 255.644531 169.472656 240.902344 Z M 169.472656 240.902344 " fill-opacity="1" fill-rule="nonzero"/><path fill="#407066" d="M 218.429688 216.421875 C 218.429688 225.027344 211.453125 232 202.851562 232 L 171.699219 232 C 163.089844 232 156.121094 225.027344 156.121094 216.421875 C 156.121094 207.820312 163.089844 200.847656 171.699219 200.847656 L 202.851562 200.847656 C 211.453125 200.847656 218.429688 207.820312 218.429688 216.421875 Z M 218.429688 216.421875 " fill-opacity="1" fill-rule="nonzero"/></svg>